<?xml version="1.0" standalone="no"?>
<!DOCTYPE svg PUBLIC "-//W3C//DTD SVG 20010904//EN"
 "http://www.w3.org/TR/2001/REC-SVG-20010904/DTD/svg10.dtd">
<svg version="1.0" xmlns="http://www.w3.org/2000/svg"
 width="320.000000pt" height="320.000000pt" viewBox="0 0 320.000000 320.000000"
 preserveAspectRatio="xMidYMid meet">
<metadata>
Created by potrace 1.11, written by Peter Selinger 2001-2013
</metadata>
<g transform="translate(0.000000,320.000000) scale(0.100000,-0.100000)"
fill="#000000" stroke="none">
<path d="M770 2688 c-288 -28 -463 -159 -525 -393 -33 -125 -16 -329 36 -440
25 -53 95 -134 133 -154 14 -8 26 -18 26 -22 0 -4 -20 -19 -43 -33 -93 -54
-180 -173 -224 -306 -22 -66 -26 -297 -7 -380 50 -218 204 -369 439 -431 74
-19 113 -22 499 -25 407 -5 419 -4 440 15 l21 20 0 790 c0 435 2 791 5 791 3
0 27 -62 52 -137 82 -244 361 -1068 363 -1070 5 -8 308 -4 315 3 6 8 121 342
353 1031 34 100 63 180 66 177 2 -2 4 -358 4 -791 0 -761 0 -789 19 -809 17
-19 29 -21 142 -21 99 0 128 3 145 16 l22 17 0 1059 c0 1030 -1 1059 -19 1078
-18 17 -36 19 -222 19 -111 0 -205 -3 -209 -8 -5 -5 -83 -232 -175 -504 -92
-272 -192 -571 -224 -663 -47 -142 -58 -165 -65 -145 -5 12 -13 32 -17 43 -5
11 -39 110 -76 220 -213 637 -347 1032 -354 1044 -6 12 -75 15 -426 15 -231 1
-453 -2 -494 -6z m446 -590 l1 -277 -226 3 c-244 3 -280 10 -348 62 -52 39
-76 96 -81 190 -7 136 32 220 123 263 65 31 127 37 340 37 l190 -1 1 -277z m2
-933 l0 -345 -27 -1 c-104 -3 -387 0 -425 5 -184 25 -270 135 -269 341 0 158
48 257 147 304 68 33 115 39 352 40 l221 1 1 -345z"/>
</g>
</svg>
