<svg width="147" height="147" viewBox="0 0 147 147" fill="none" xmlns="http://www.w3.org/2000/svg">
<g clip-path="url(#clip0)">
<path d="M120.593 146.422H26.3201C12.0268 146.422 0.471924 134.571 0.471924 119.911V26.964C0.471924 12.3043 12.0268 0.453125 26.3201 0.453125H120.593C134.886 0.453125 146.441 12.3043 146.441 26.964V119.911C146.441 134.571 134.886 146.422 120.593 146.422Z" fill="#FF26BE"/>
<path d="M118.284 140.181H28.6361C16.474 140.181 6.55981 130.012 6.55981 117.538V29.3344C6.55981 16.8604 16.474 6.69202 28.6361 6.69202H118.226C130.452 6.69202 140.302 16.8604 140.302 29.3344V117.479C140.361 130.012 130.446 140.181 118.284 140.181Z" fill="#2E001F"/>
<path d="M58.1882 68.758L75.2198 102.317C75.5234 102.814 75.3424 103.317 74.852 103.317H64.2663C63.5948 103.317 63.2912 103.131 62.9876 102.509C59.0932 94.2746 55.1403 86.0406 51.0649 77.1837H50.9423C47.293 85.5435 43.276 94.3405 39.3874 102.575C39.0838 103.072 38.7801 103.263 38.2897 103.263H28.2646C27.6573 103.263 27.5931 102.766 27.9026 102.389L44.5664 69.8239L28.4514 36.8877C28.0836 36.3906 28.4514 36.0134 28.8134 36.0134H39.2764C39.8837 36.0134 40.1289 36.1391 40.3683 36.702C44.1985 44.9361 48.093 53.4217 51.7422 61.7156H51.8648C55.3914 53.4816 59.2858 44.9361 63.0577 36.7619C63.3613 36.2649 63.5423 35.9535 64.1554 35.9535H73.9469C74.4316 35.9535 74.6184 36.3308 74.3148 36.8278L58.1882 68.758ZM78.2034 78.9263C78.2034 64.3925 87.633 53.0384 102.592 53.0384C103.871 53.0384 104.536 53.0384 105.756 53.1642V36.6362C105.756 36.2589 106.06 36.0134 106.364 36.0134H115.974C116.459 36.0134 116.581 36.199 116.581 36.5104V93.7776C116.581 95.4603 116.581 97.5802 116.885 99.8917C116.885 100.269 116.762 100.389 116.4 100.58C111.292 103.078 105.937 104.197 100.829 104.197C87.6271 104.251 78.1976 95.8975 78.2034 78.9263ZM105.751 62.9612C104.898 62.584 103.684 62.3384 102.224 62.3384C94.5577 62.3384 89.2094 68.3867 89.2094 78.4353C89.2094 89.9151 94.6862 94.5321 101.558 94.5321C103.018 94.5321 104.6 94.3465 105.756 93.8434V62.9612H105.751Z" fill="#FFD9F2"/>
</g>
<defs>
<clipPath id="clip0">
<rect width="145.969" height="145.969" fill="white" transform="translate(0.471924 0.453125)"/>
</clipPath>
</defs>
</svg>
