<svg width="147" height="147" viewBox="0 0 147 147" fill="none" xmlns="http://www.w3.org/2000/svg">
<path d="M0.840576 127.782C0.840576 138.178 9.26715 146.603 19.6619 146.603H127.988C138.384 146.603 146.809 138.177 146.809 127.782V19.4557C146.809 9.05983 138.383 0.634399 127.988 0.634399H19.6619C9.26601 0.634399 0.840576 9.06098 0.840576 19.4557V127.782Z" fill="#563D7C"/>
<path d="M61.366 65.1999V44.5285H79.5617C81.2947 44.5285 82.9657 44.6729 84.5749 44.9617C86.184 45.2506 87.6075 45.7663 88.8453 46.509C90.0831 47.2517 91.0734 48.2832 91.8161 49.6035C92.5587 50.9239 92.9301 52.6155 92.9301 54.6785C92.9301 58.392 91.8161 61.0739 89.588 62.7243C87.3599 64.3747 84.513 65.1999 81.0471 65.1999H61.366ZM41.9324 29.4272V117.807H84.7605C88.7216 117.807 92.5793 117.312 96.334 116.321C100.089 115.331 103.431 113.805 106.36 111.742C109.29 109.678 111.621 107.017 113.354 103.758C115.087 100.498 115.953 96.6403 115.953 92.1841C115.953 86.6552 114.612 81.931 111.93 78.0112C109.249 74.0915 105.184 71.3477 99.738 69.7798C103.699 67.8818 106.69 65.4475 108.712 62.4767C110.734 59.506 111.745 55.7926 111.745 51.3365C111.745 47.2104 111.064 43.7446 109.702 40.9389C108.341 38.1332 106.422 35.8845 103.947 34.1928C101.471 32.5011 98.5002 31.284 95.0344 30.5413C91.5685 29.7986 87.7313 29.4272 83.5227 29.4272H41.9324ZM61.366 102.706V78.4445H82.5325C86.7411 78.4445 90.1244 79.4141 92.6825 81.3533C95.2407 83.2926 96.5197 86.5314 96.5197 91.0701C96.5197 93.3807 96.1278 95.2786 95.3438 96.764C94.5599 98.2494 93.5077 99.4253 92.1874 100.292C90.8671 101.158 89.3404 101.777 87.6075 102.148C85.8746 102.52 84.0591 102.706 82.1611 102.706H61.366Z" fill="white"/>
</svg>
