<svg width="147" height="147" viewBox="0 0 147 147" fill="none" xmlns="http://www.w3.org/2000/svg">
<g clip-path="url(#clip0)">
<path d="M36.6934 146.423C56.833 146.423 73.1783 135.524 73.1783 122.094V97.7656H36.6934C16.5537 97.7656 0.208496 108.665 0.208496 122.094C0.208496 135.524 16.5537 146.423 36.6934 146.423Z" fill="#0ACF83"/>
<path d="M0.208496 73.4369C0.208496 60.0078 16.5537 49.1088 36.6934 49.1088H73.1783V97.765H36.6934C16.5537 97.765 0.208496 86.866 0.208496 73.4369Z" fill="#A259FF"/>
<path d="M0.208496 24.7812C0.208496 11.3521 16.5537 0.453125 36.6934 0.453125H73.1783V49.1094H36.6934C16.5537 49.1094 0.208496 38.2104 0.208496 24.7812Z" fill="#F24E1E"/>
<path d="M73.175 0.453125H109.66C129.8 0.453125 146.145 11.3521 146.145 24.7812C146.145 38.2104 129.8 49.1094 109.66 49.1094H73.175V0.453125Z" fill="#FF7262"/>
<path d="M146.145 73.4369C146.145 86.866 129.8 97.765 109.66 97.765C89.5203 97.765 73.175 86.866 73.175 73.4369C73.175 60.0078 89.5203 49.1088 109.66 49.1088C129.8 49.1088 146.145 60.0078 146.145 73.4369Z" fill="#1ABCFE"/>
</g>
<defs>
<clipPath id="clip0">
<rect width="145.969" height="145.969" fill="white" transform="translate(0.190674 0.453125)"/>
</clipPath>
</defs>
</svg>
