<svg width="157" height="157" viewBox="0 0 157 157" fill="none" xmlns="http://www.w3.org/2000/svg">
<path d="M153.16 70.8402L86.3693 4.04989C84.3206 2.00121 81.4557 0.768799 78.5907 0.768799C75.7258 0.768799 72.8608 2.00121 70.8121 4.04989L56.4713 18.3907L73.2609 35.1803C74.9095 34.364 76.542 33.9639 78.5907 33.9639C85.553 33.9639 90.8828 39.2777 90.8828 46.256C90.8828 48.3047 90.4667 49.9372 89.6504 51.5698L106.04 67.9592C107.688 67.143 109.321 66.7428 111.37 66.7428C118.332 66.7428 123.662 72.0566 123.662 79.0349C123.662 85.9973 118.332 91.327 111.37 91.327C104.407 91.327 99.0776 85.9973 99.0776 79.0349C99.0776 76.9863 99.4937 75.3377 100.31 73.7052L83.9205 57.3157C83.5044 57.3157 83.1042 57.7158 82.6881 57.7158V100.338C87.6017 101.971 90.8828 106.484 90.8828 111.814C90.8828 118.776 85.553 124.106 78.5907 124.106C71.6284 124.106 66.2986 118.776 66.2986 111.814C66.2986 106.484 69.5797 101.971 74.4933 100.338V57.3157C69.5797 55.6671 66.2986 51.1696 66.2986 45.8399C66.2986 43.7912 66.7148 42.1586 67.531 40.5101L50.7254 23.7205L4.02182 70.8402C1.97313 72.8889 0.740723 75.7538 0.740723 78.6188C0.740723 81.4837 1.97313 84.3487 4.02182 86.3974L70.8121 153.188C72.8608 155.236 75.7258 156.469 78.5907 156.469C81.4557 156.469 84.3206 155.236 86.3693 153.188L153.16 86.3974C155.208 84.3487 156.441 81.4837 156.441 78.6188C156.441 75.7538 155.208 72.8889 153.16 70.8402Z" fill="#F1502F"/>
</svg>
