<svg width="147" height="147" viewBox="0 0 147 147" fill="none" xmlns="http://www.w3.org/2000/svg">
<g clip-path="url(#clip0)">
<g opacity="0.783">
<path opacity="0.783" d="M60.3057 6.26561L7.18579 59.3197C-12.9265 78.9272 20.2137 77.2976 32.2068 84.7086C37.7523 88.2266 14.4161 92.7534 19.1789 97.4095C23.8222 102.066 47.1584 106.334 51.8017 110.861C56.4451 115.517 42.3824 120.419 47.0257 125.062C51.5364 129.718 62.3753 125.308 64.299 135.874C65.7185 143.673 84.1592 139.767 92.4111 133.107C97.5719 128.838 83.5092 128.838 88.1525 124.182C99.7609 112.749 110.069 119.022 114.328 108.468C116.649 102.816 96.7891 98.7934 102.083 95.1461C114.726 86.4676 161.146 82.0701 139.733 61.208L84.6766 6.26561C77.8443 -0.0201769 66.6206 -0.0201769 60.3057 6.26561ZM121.293 108.468C121.293 111.106 142.307 112.62 141.153 107.834C139.481 99.8022 123.614 100.423 121.293 108.468ZM31.6761 122.423C36.4521 126.446 43.6692 121.544 45.9909 115.892C41.3476 109.981 24.207 116.267 31.6761 122.423ZM118.719 114.003C112.789 119.28 119.754 124.816 125.551 121.169C127.104 120.16 125.419 115.258 118.719 114.003Z" fill="black"/>
<path opacity="0.576" d="M60.3057 7.49388L7.18579 60.548C-12.9265 80.1555 20.2137 78.5258 32.2068 85.9368C37.7523 89.4548 14.4161 93.9816 19.1789 98.6377C23.8222 103.294 47.1584 107.562 51.8017 112.089C56.4451 116.745 42.3824 121.647 47.0257 126.29C51.5364 130.946 62.3753 126.536 64.299 137.103C65.7185 144.902 84.1592 140.996 92.4111 134.335C97.5719 130.067 83.5092 130.067 88.1525 125.411C99.7609 113.977 110.069 120.25 114.328 109.696C116.649 104.044 96.7891 100.022 102.083 96.3743C114.726 87.6958 161.146 83.2984 139.733 62.4363L84.6766 7.49388C77.8443 1.20809 66.6206 1.20809 60.3057 7.49388ZM121.293 109.696C121.293 112.335 142.307 113.848 141.153 109.062C139.481 101.03 123.614 101.651 121.293 109.696ZM31.6761 123.652C36.4521 127.674 43.6692 122.772 45.9909 117.12C41.3476 111.209 24.207 117.495 31.6761 123.652ZM118.719 115.232C112.789 120.509 119.754 126.044 125.551 122.397C127.104 121.388 125.419 116.486 118.719 115.232Z" fill="black"/>
</g>
<path d="M60.3057 5.05018L7.18579 58.0913C-12.9265 77.6988 20.2137 76.0692 32.2068 83.4802C37.7523 86.9982 14.4161 91.525 19.1789 96.1811C23.8222 100.837 47.1584 105.105 51.8017 109.632C56.4451 114.288 42.3824 119.19 47.0257 123.833C51.5364 128.49 62.3753 124.079 64.299 134.646C65.7185 142.445 84.1592 138.539 92.4111 131.878C97.5719 127.61 83.5092 127.61 88.1525 122.954C99.7609 111.52 110.069 117.793 114.328 107.239C116.649 101.587 96.7891 97.565 102.083 93.9177C114.726 85.2392 161.146 80.8417 139.733 59.9796L84.6766 5.03725C77.8443 -1.2356 66.6206 -1.2356 60.3057 5.05018ZM121.293 107.252C121.293 109.891 142.307 111.404 141.153 106.619C139.481 98.5738 123.614 99.2076 121.293 107.252ZM31.6761 121.208C36.4521 125.23 43.6692 120.328 45.9909 114.676C41.3476 108.753 24.207 115.038 31.6761 121.208ZM118.719 112.775C112.789 118.052 119.754 123.588 125.551 119.94C127.104 118.944 125.419 114.03 118.719 112.775Z" fill="black"/>
<path d="M60.3057 5.05018L7.18579 58.0913C-12.9265 77.6988 20.2137 76.0692 32.2068 83.4802C37.7523 86.9982 14.4161 91.525 19.1789 96.1811C23.8222 100.837 47.1584 105.105 51.8017 109.632C56.4451 114.288 42.3824 119.19 47.0257 123.833C51.5364 128.49 62.3753 124.079 64.299 134.646C65.7185 142.445 84.1592 138.539 92.4111 131.878C97.5719 127.61 83.5092 127.61 88.1525 122.954C99.7609 111.52 110.069 117.793 114.328 107.239C116.649 101.587 96.7891 97.565 102.083 93.9177C114.726 85.2392 161.146 80.8417 139.733 59.9796L84.6766 5.03725C77.8443 -1.2356 66.6206 -1.2356 60.3057 5.05018ZM121.293 107.252C121.293 109.891 142.307 111.404 141.153 106.619C139.481 98.5738 123.614 99.2076 121.293 107.252ZM31.6761 121.208C36.4521 125.23 43.6692 120.328 45.9909 114.676C41.3476 108.753 24.207 115.038 31.6761 121.208ZM118.719 112.775C112.789 118.052 119.754 123.588 125.551 119.94C127.104 118.944 125.419 114.03 118.719 112.775Z" fill="black"/>
<path opacity="0.67" d="M60.4268 5.6577L7.79791 58.2072C-12.1154 77.6336 20.7064 76.0039 32.5801 83.3502C38.0725 86.8423 14.9487 91.3174 19.6849 95.9218C24.2884 100.526 47.399 104.768 52.0025 109.243C56.606 113.848 42.676 118.711 47.2796 123.315C51.7504 127.92 62.4832 123.561 64.3936 134.024C65.7998 141.746 84.0681 137.879 92.2403 131.282C97.348 127.053 83.4313 127.053 88.0215 122.436C99.5105 111.106 109.739 117.327 113.945 106.877C116.24 101.276 96.5785 97.2927 101.806 93.6713C114.329 85.0834 160.312 80.7247 139.098 60.0567L84.5722 5.6577C77.7929 -0.576329 66.6887 -0.576329 60.4268 5.6577ZM47.7837 86.2215C48.9379 86.2215 87.1194 91.201 72.4332 95.0681C66.8081 96.5555 41.0177 86.2215 47.7837 86.2215ZM120.843 106.89C120.843 109.502 141.659 111.002 140.518 106.269C138.859 98.3016 123.138 98.9224 120.843 106.89ZM32.0759 120.716C36.7989 124.699 43.9496 119.849 46.258 114.236C41.6545 108.39 24.6599 114.611 32.0759 120.716ZM118.283 112.373C112.406 117.599 119.304 123.082 125.049 119.474C126.588 118.465 124.929 113.615 118.283 112.373Z" fill="url(#paint0_linear)"/>
<path opacity="0.67" d="M11.9037 61.0398C-2.54377 74.9952 22.8355 71.0634 42.3509 78.552L82.695 9.39562C76.579 3.30386 68.7649 3.80827 63.1796 9.39562L11.9037 61.0398Z" fill="url(#paint1_linear)"/>
<path d="M81.4501 8.8129L102.465 29.6749C104.402 31.5632 104.402 35.4563 103.234 36.5944L92.7932 28.3039L90.7236 40.5004L82.0869 35.9736L68.0375 44.6521L63.3941 26.4286L55.925 42.2594L37.2321 42.13C33.6236 42.13 34.141 38.4827 37.8822 34.8355C45.232 26.92 59.5468 13.469 64.0574 8.8129C68.6875 4.15678 76.8068 4.28612 81.4501 8.8129Z" fill="url(#paint2_linear)"/>
<path opacity="0.217" d="M52.606 107.395C52.606 107.395 54.8879 110.797 54.6491 112.388C54.198 115.518 47.2596 117.083 48.7985 119.876C50.3109 122.631 55.7768 121.066 60.367 123.951C64.9308 126.822 63.7102 132.668 67.0269 134.142C73.501 137.014 90.5089 129.189 89.6465 129.357C88.7975 129.525 72.8642 132.746 69.2822 129.926C65.1961 126.705 64.0154 124.442 61.0038 122.541C58.178 120.756 54.2113 120.019 53.2826 118.557C52.354 117.096 55.14 115.207 55.3257 112.388C55.4451 110.693 52.606 107.395 52.606 107.395Z" fill="black"/>
<path d="M52.606 107.395C52.606 107.395 54.8879 110.797 54.6491 112.388C54.198 115.518 47.2596 117.083 48.7985 119.876C50.3109 122.631 55.7768 121.066 60.367 123.951C64.9308 126.822 63.7102 132.668 67.0269 134.142C73.501 137.014 90.5089 129.189 89.6465 129.357C61.4151 129.46 66.682 122.373 55.79 117.703C54.2113 117.031 55.1267 115.194 55.3257 112.375C55.4451 110.693 52.606 107.395 52.606 107.395Z" fill="url(#paint3_radial)"/>
<path opacity="0.453" d="M100.581 92.9216C125.92 83.8292 134.066 82.5876 142.411 74.4393C132.739 82.3936 112.295 86.6617 95.6323 93.7494L100.581 92.9216Z" fill="black"/>
<path d="M100.581 91.7452C142.318 77.3374 135.26 77.415 142.411 73.2764C129.144 78.2298 104.349 78.7601 95.6323 92.5858L100.581 91.7452Z" fill="url(#paint4_radial)"/>
<path opacity="0.286" d="M137.038 103.282C137.038 104.175 134.611 104.899 131.612 104.899C128.614 104.899 126.186 104.175 126.186 103.269C126.186 102.364 128.627 101.653 131.612 101.653C134.611 101.653 137.038 102.377 137.038 103.282Z" fill="black"/>
<path d="M138.914 105.157C138.914 107.084 135.65 108.649 131.617 108.649C127.584 108.649 124.32 107.084 124.32 105.157C124.32 103.23 127.584 101.665 131.617 101.665C135.65 101.665 138.914 103.217 138.914 105.157Z" fill="url(#paint5_linear)"/>
<path d="M121.674 107.097C124.247 109.412 138.576 110.602 140.924 106.438C136.321 109.606 126.092 108.494 121.674 107.097Z" fill="url(#paint6_radial)"/>
<path opacity="0.286" d="M121.72 114.845C122.25 115.854 121.905 117.057 120.963 117.522C120.021 117.988 118.827 117.548 118.296 116.539C117.766 115.53 118.111 114.328 119.053 113.862C120.008 113.383 121.202 113.823 121.72 114.845Z" fill="url(#paint7_linear)"/>
<path d="M122.744 115.284C123.527 116.797 123.049 118.569 121.669 119.255C120.29 119.94 118.525 119.268 117.742 117.754C116.96 116.241 117.437 114.469 118.817 113.783C120.197 113.098 121.961 113.77 122.744 115.284Z" fill="url(#paint8_linear)"/>
<path d="M118.163 119.527C120.233 121.105 128.02 121.312 125.062 116.72C125.831 120.316 120.512 119.928 118.163 119.527Z" fill="url(#paint9_radial)"/>
<path d="M22.0422 95.7408C22.0422 95.3269 48.5755 103.618 53.1127 108.054C49.3715 104.497 30.4665 96.3228 27.5877 96.2323C24.7088 96.1547 22.3872 95.9089 22.0422 95.7408Z" fill="url(#paint10_radial)"/>
<path opacity="0.286" d="M41.9693 113.511C42.1816 114.132 40.2313 115.102 37.5912 115.659C34.951 116.215 32.6558 116.176 32.4302 115.555C32.2047 114.934 34.1682 113.964 36.8084 113.408C39.4486 112.851 41.7571 112.89 41.9693 113.511Z" fill="url(#paint11_linear)"/>
<path d="M44.0711 114.468C44.5354 115.814 42.0413 117.521 38.499 118.271C34.9568 119.021 31.7065 118.555 31.2421 117.21C30.7778 115.865 33.272 114.158 36.8142 113.408C40.3564 112.658 43.6067 113.123 44.0711 114.468Z" fill="url(#paint12_linear)"/>
<g opacity="0.616">
<path opacity="0.616" d="M30.5369 117.716C30.5369 117.716 31.9697 121.48 35.9098 121.674C39.9031 121.868 44.4535 117.005 44.825 115.271C44.1484 116.772 40.3276 121.286 35.3924 121.222C32.6065 121.183 30.5369 117.716 30.5369 117.716Z" fill="url(#paint13_radial)"/>
</g>
<path d="M72.3138 2.17786C68.3205 2.17786 64.4068 3.58763 61.634 6.3425L8.51391 59.3706C3.65828 64.1043 2.4908 67.2084 2.79594 68.9544C2.94187 69.8339 3.39294 70.597 4.32162 71.3859C5.26356 72.1878 6.6831 72.9638 8.39451 73.6623C11.8173 75.0591 16.4076 76.1843 20.9316 77.4001C25.4423 78.6029 29.8734 79.8834 33.2166 81.9527C33.734 82.2761 34.2116 82.677 34.5433 83.2461C34.875 83.8152 34.9944 84.5783 34.8617 85.212C34.5964 86.4795 33.7871 87.1521 32.9645 87.76C31.3195 88.9757 29.0641 89.9846 26.7955 91.058C24.5269 92.1315 22.245 93.218 21.1173 94.1233C20.5469 94.576 20.3479 94.977 20.3479 94.9511C20.3611 94.9252 20.2019 94.6019 20.4673 94.8735C21.1837 95.5848 23.3992 96.8006 26.225 97.9C29.0509 98.9993 32.5135 100.099 36.0159 101.198C39.5183 102.297 43.0606 103.397 46.0456 104.535C49.0439 105.673 51.4849 106.734 53.1035 108.312C53.8995 109.113 54.47 110.122 54.5894 111.144C54.7088 112.166 54.4302 113.123 54.0322 113.938C53.2362 115.554 51.9493 116.783 50.7685 117.986C49.5878 119.176 48.5265 120.327 48.1417 121.09C47.956 121.478 47.9162 121.724 47.9427 121.879C47.956 122.034 47.9825 122.189 48.3407 122.552L48.3805 122.59C49.9195 124.181 53.2627 124.401 57.0437 125.268C58.9276 125.694 60.9043 126.354 62.6025 127.777C64.3006 129.212 65.5742 131.385 66.1049 134.334C66.3305 135.589 67.0071 136.197 68.6389 136.688C70.2707 137.18 72.7516 137.27 75.4845 136.882C80.9504 136.106 87.4246 133.493 91.1658 130.48C91.3914 130.286 91.3383 130.338 91.4046 130.247C91.1526 130.066 90.5688 129.704 89.5871 129.225C88.4329 128.669 87.0797 128.139 86.0449 126.871C85.5275 126.238 85.1693 125.229 85.3152 124.233C85.4611 123.25 86.0183 122.422 86.7613 121.685C92.8772 115.645 98.9136 114.209 103.451 113.045C105.719 112.463 107.617 111.92 109.049 111.041C110.482 110.161 111.61 108.945 112.552 106.604C112.658 106.346 112.658 106.281 112.512 105.971C112.366 105.673 111.995 105.195 111.384 104.677C110.177 103.643 108.147 102.543 106.144 101.457C104.141 100.37 102.204 99.3615 100.784 98.081C100.081 97.4344 99.3381 96.6325 99.2585 95.4038C99.1789 94.1751 100.001 93.0757 100.957 92.4161C104.499 89.9846 109.845 88.135 115.67 86.1691C121.48 84.2032 127.742 82.1726 132.837 79.8446C137.931 77.5165 141.672 74.8392 142.866 72.149C143.463 70.8039 143.57 69.433 142.946 67.674C142.322 65.915 140.89 63.7551 138.356 61.2718L83.3915 6.3813L83.3517 6.3425C80.3136 3.56176 76.2805 2.17786 72.3138 2.17786V2.17786ZM131.55 102.75C128.154 102.866 125.023 104.38 123.696 106.76C124.081 106.902 124.412 107.057 125.023 107.186C126.8 107.587 129.268 107.846 131.709 107.898C134.15 107.949 136.591 107.755 138.077 107.342C138.727 107.16 139.072 106.992 139.245 106.876C138.913 105.505 138.13 104.535 136.79 103.811C135.397 103.061 133.487 102.672 131.55 102.75V102.75ZM40.6327 114.132C37.9396 113.951 34.5566 114.998 32.8982 116.292C32.0757 116.938 31.7175 117.546 31.6909 117.947C31.6644 118.348 31.7971 118.878 32.8982 119.797V119.835C34.6494 121.31 36.6129 121.155 38.8683 119.952C40.7521 118.943 42.4238 117.055 43.5382 115.076C42.6758 114.52 41.6675 114.196 40.6327 114.132V114.132ZM119.291 114.921C118.708 115.632 118.402 116.305 118.363 116.77C118.31 117.417 118.495 117.908 119.013 118.387C119.968 119.266 122.024 119.641 124.134 118.542C124.067 118.154 123.921 117.792 123.696 117.482C123.046 116.55 121.533 115.554 119.291 114.921Z" stroke="url(#paint14_radial)" stroke-width="10.8617"/>
<g opacity="0.325">
<path opacity="0.325" d="M43.1778 85.2261C39.9673 86.1444 29.5794 89.9727 31.052 92.8957C32.4715 95.7023 56.6171 96.8276 60.3318 105.17C61.9503 108.804 56.6171 111.559 57.9703 115.297C59.0051 118.181 67.0448 125.424 72.126 128.838C76.1193 131.529 81.3464 126.678 79.2237 122.656C75.8274 116.254 90.8322 108.416 97.638 104.859C101.605 102.777 89.4524 92.5853 89.4524 92.5853L43.1778 85.2261Z" fill="url(#paint15_linear)"/>
</g>
<path d="M44.3699 88.0596C47.2488 90.1159 52.927 88.8743 56.3366 90.3746C64.5222 93.9699 74.5917 97.9791 72.7344 90.8789L70.6515 92.5602L70.6117 89.3399L65.7693 90.4909C65.7693 90.4909 62.0148 87.5552 60.3034 86.5852C59.9452 86.3783 58.1011 88.2148 58.1011 88.2148L57.7694 86.2748C55.4875 86.0421 53.2056 85.9257 50.9105 85.9386C45.9222 85.9903 42.5391 86.7534 44.3699 88.0596Z" fill="url(#paint16_linear)"/>
<g opacity="0.478">
<path opacity="0.478" d="M98.1127 94.5897C96.9983 98.5604 111.724 103.967 110.623 106.709C108.195 112.749 94.9021 108.636 84.7266 121.285C83.2672 123.096 86.7696 129.575 86.3053 128.799C85.8277 128.036 82.2324 122.682 83.1611 120.056C86.0532 111.805 114.02 108.726 108.899 104.781C105.953 102.531 95.3665 96.2711 98.1127 94.5897Z" fill="url(#paint17_radial)"/>
</g>
<path opacity="0.586" d="M131.258 102.765C131.258 103.127 130.541 103.412 129.639 103.412C128.737 103.412 128.021 103.114 128.021 102.752C128.021 102.39 128.737 102.105 129.639 102.105C130.541 102.105 131.258 102.403 131.258 102.765ZM120.485 114.806C120.485 115.168 120.021 115.452 119.464 115.452C118.893 115.452 118.442 115.155 118.442 114.793C118.442 114.431 118.906 114.146 119.464 114.146C120.021 114.159 120.485 114.444 120.485 114.806ZM38.8554 114.237C38.8554 114.599 38.0461 114.883 37.0511 114.883C36.0561 114.883 35.2468 114.586 35.2468 114.237C35.2468 113.875 36.0561 113.59 37.0511 113.59C38.0461 113.59 38.8554 113.875 38.8554 114.237Z" fill="black"/>
<path opacity="0.251" d="M37.8315 85.5367C28.6112 91.0982 14.2699 93.1159 29.9644 96.8149C28.0938 92.7537 34.0107 93.2064 37.8315 85.5367Z" fill="black"/>
<path d="M70.5752 136.172C70.5752 136.172 84.7971 134.865 88.0873 130.869C90.0109 128.528 80.4324 125.799 82.502 123.497C90.2763 114.87 96.8167 115.232 105.825 111.611C114.846 108.002 111.516 106.23 108.598 104.639C103.609 101.923 92.4918 99.0261 96.1667 92.5851C99.8681 86.0924 132.279 77.0905 132.279 77.0905C142.096 73.8183 140.862 67.9076 136.06 62.9669L107.098 34.8878C107.098 34.8878 108.531 61.5183 102.694 72.9517C95.4635 87.0624 57.0167 102.816 73.0959 104.562C78.7608 105.17 81.4805 107.058 83.8021 111.313C88.5649 120.069 70.5752 136.172 70.5752 136.172Z" fill="url(#paint18_linear)"/>
</g>
<defs>
<linearGradient id="paint0_linear" x1="119.29" y1="39.8783" x2="91.7881" y2="65.394" gradientUnits="userSpaceOnUse">
<stop stop-color="#C0CDF9"/>
<stop offset="1" stop-color="#07092D" stop-opacity="0.288"/>
</linearGradient>
<linearGradient id="paint1_linear" x1="36.0692" y1="30.2447" x2="67.6573" y2="62.6562" gradientUnits="userSpaceOnUse">
<stop stop-color="white"/>
<stop offset="1" stop-color="white" stop-opacity="0"/>
</linearGradient>
<linearGradient id="paint2_linear" x1="57.6516" y1="24.4753" x2="95.2118" y2="63.0146" gradientUnits="userSpaceOnUse">
<stop stop-color="white"/>
<stop offset="1" stop-color="white" stop-opacity="0"/>
</linearGradient>
<radialGradient id="paint3_radial" cx="0" cy="0" r="1" gradientUnits="userSpaceOnUse" gradientTransform="translate(65.8775 133.53) scale(41.7225 27.2185)">
<stop stop-color="white"/>
<stop offset="1" stop-color="white" stop-opacity="0"/>
</radialGradient>
<radialGradient id="paint4_radial" cx="0" cy="0" r="1" gradientUnits="userSpaceOnUse" gradientTransform="translate(123.972 86.7674) scale(23.3118 9.61813)">
<stop stop-color="white"/>
<stop offset="1" stop-color="white" stop-opacity="0"/>
</radialGradient>
<linearGradient id="paint5_linear" x1="131.621" y1="100.208" x2="131.621" y2="106.566" gradientUnits="userSpaceOnUse">
<stop stop-color="white"/>
<stop offset="1" stop-color="white" stop-opacity="0"/>
</linearGradient>
<radialGradient id="paint6_radial" cx="0" cy="0" r="1" gradientUnits="userSpaceOnUse" gradientTransform="translate(131.292 107.809) scale(9.59257 1.38127)">
<stop stop-color="white"/>
<stop offset="1" stop-color="white" stop-opacity="0"/>
</radialGradient>
<linearGradient id="paint7_linear" x1="118.803" y1="113.408" x2="120.837" y2="117.094" gradientUnits="userSpaceOnUse">
<stop stop-color="white"/>
<stop offset="1" stop-color="white" stop-opacity="0"/>
</linearGradient>
<linearGradient id="paint8_linear" x1="117.954" y1="112.117" x2="120.786" y2="117.846" gradientUnits="userSpaceOnUse">
<stop stop-color="white"/>
<stop offset="1" stop-color="white" stop-opacity="0"/>
</linearGradient>
<radialGradient id="paint9_radial" cx="0" cy="0" r="1" gradientUnits="userSpaceOnUse" gradientTransform="translate(121.99 119.786) rotate(-26.302) scale(4.12664 1.38846)">
<stop stop-color="white"/>
<stop offset="1" stop-color="white" stop-opacity="0"/>
</radialGradient>
<radialGradient id="paint10_radial" cx="0" cy="0" r="1" gradientUnits="userSpaceOnUse" gradientTransform="translate(36.8076 99.9091) scale(15.4844 6.14347)">
<stop stop-color="white" stop-opacity="0.33"/>
<stop offset="1" stop-color="white" stop-opacity="0"/>
</radialGradient>
<linearGradient id="paint11_linear" x1="36.5446" y1="112.773" x2="37.2336" y2="115.761" gradientUnits="userSpaceOnUse">
<stop stop-color="white"/>
<stop offset="1" stop-color="white" stop-opacity="0"/>
</linearGradient>
<linearGradient id="paint12_linear" x1="36.4623" y1="112.404" x2="37.4346" y2="116.947" gradientUnits="userSpaceOnUse">
<stop stop-color="white"/>
<stop offset="1" stop-color="white" stop-opacity="0"/>
</linearGradient>
<radialGradient id="paint13_radial" cx="0" cy="0" r="1" gradientUnits="userSpaceOnUse" gradientTransform="translate(37.2297 121.434) rotate(-15.1173) scale(8.74709 3.20114)">
<stop stop-color="white"/>
<stop offset="1" stop-color="white" stop-opacity="0"/>
</radialGradient>
<radialGradient id="paint14_radial" cx="0" cy="0" r="1" gradientUnits="userSpaceOnUse" gradientTransform="translate(78.7461 16.8646) scale(121.24 116.295)">
<stop stop-color="white"/>
<stop offset="1" stop-color="white" stop-opacity="0"/>
</radialGradient>
<linearGradient id="paint15_linear" x1="44.7728" y1="101.577" x2="81.0429" y2="111.417" gradientUnits="userSpaceOnUse">
<stop stop-color="white"/>
<stop offset="1" stop-color="white" stop-opacity="0"/>
</linearGradient>
<linearGradient id="paint16_linear" x1="60.7195" y1="85.0183" x2="56.8058" y2="94.2206" gradientUnits="userSpaceOnUse">
<stop stop-color="#EEEEEC"/>
<stop offset="1" stop-color="#EEEEEC" stop-opacity="0"/>
</linearGradient>
<radialGradient id="paint17_radial" cx="0" cy="0" r="1" gradientUnits="userSpaceOnUse" gradientTransform="translate(97.155 111.345) scale(19.0529 23.5983)">
<stop stop-color="white"/>
<stop offset="1" stop-color="white" stop-opacity="0"/>
</radialGradient>
<linearGradient id="paint18_linear" x1="107.706" y1="109.25" x2="91.448" y2="64.3332" gradientUnits="userSpaceOnUse">
<stop stop-color="#729FCF"/>
<stop offset="1" stop-color="#729FCF" stop-opacity="0"/>
</linearGradient>
<clipPath id="clip0">
<rect width="145.969" height="145.969" fill="white" transform="translate(0.840576 0.318848)"/>
</clipPath>
</defs>
</svg>
