<svg width="147" height="147" viewBox="0 0 147 147" fill="none" xmlns="http://www.w3.org/2000/svg">
<path d="M130.62 0.815674H15.93C7.29572 0.815674 0.290527 7.82087 0.290527 16.4552V131.145C0.290527 139.779 7.29572 146.784 15.93 146.784H130.62C139.254 146.784 146.259 139.779 146.259 131.145V16.4552C146.259 7.82087 139.254 0.815674 130.62 0.815674ZM79.7262 114.658C79.7262 128.864 71.3851 135.348 59.2319 135.348C48.2517 135.348 41.8981 129.679 38.6399 122.804L49.8156 116.059C51.9661 119.871 53.921 123.097 58.6454 123.097C63.1418 123.097 66.009 121.338 66.009 114.463V91.1501V67.8375H79.7262V91.2479V114.658ZM112.178 135.348C99.4385 135.348 91.1952 129.288 87.1875 121.338L98.3633 114.886C101.296 119.676 105.14 123.227 111.885 123.227C117.554 123.227 121.203 120.393 121.203 116.45C121.203 111.758 117.489 110.097 111.201 107.327L107.78 105.861C97.8745 101.658 91.3255 96.347 91.3255 85.1713C91.3255 74.8753 99.1778 67.0555 111.396 67.0555C120.128 67.0555 126.384 70.0857 130.88 78.0357L120.193 84.878C117.847 80.6749 115.306 79.0132 111.364 79.0132C107.356 79.0132 104.815 81.5546 104.815 84.878C104.815 88.9834 107.356 90.6451 113.253 93.2191L116.675 94.6853C128.339 99.6704 134.888 104.786 134.888 116.255C134.888 128.571 125.179 135.348 112.178 135.348Z" fill="#E9D54D"/>
</svg>
