<svg width="147" height="147" viewBox="0 0 147 147" fill="none" xmlns="http://www.w3.org/2000/svg">
<path d="M119.417 47.9373C117.878 47.3509 116.338 46.797 114.799 46.2757C115.056 45.0702 115.284 43.8647 115.512 42.6593C119.018 23.2412 116.709 7.63515 108.926 2.48742C101.428 -2.43225 89.1974 2.6829 76.8243 14.9984C75.5984 16.2038 74.401 17.4745 73.2606 18.7451C72.4908 17.898 71.6926 17.0509 70.8943 16.2364C57.9225 3.07387 44.9221 -2.46483 37.139 2.71548C29.6695 7.66773 27.4458 22.3616 30.5818 40.737C30.8954 42.5615 31.2375 44.3534 31.6367 46.178C29.8121 46.7644 28.016 47.416 26.3339 48.1002C11.1098 54.1276 0.190674 63.6411 0.190674 73.4805C0.190674 83.6456 11.8226 93.8433 27.6453 100.034C28.9283 100.522 30.2112 101.011 31.5226 101.435C31.095 103.389 30.7244 105.312 30.3823 107.299C27.3888 125.381 29.7265 139.717 37.196 144.636C44.8936 149.719 57.8369 144.506 70.4381 131.897C71.436 130.887 72.4338 129.845 73.4316 128.737C74.6861 130.138 75.9975 131.474 77.3089 132.777C89.511 144.767 101.571 149.621 109.012 144.702C116.709 139.619 119.218 124.208 115.968 105.442C115.711 104.008 115.426 102.542 115.113 101.044C116.025 100.75 116.909 100.425 117.792 100.099C134.242 93.8759 146.159 83.8085 146.159 73.4805C146.159 63.6086 134.927 54.0299 119.417 47.9373ZM80.8441 20.2764C91.4497 9.7203 101.342 5.58257 105.847 8.5474C110.665 11.7077 112.518 24.4793 109.496 41.2583C109.297 42.366 109.097 43.4412 108.84 44.5163C102.511 42.8873 96.0967 41.7144 89.6535 41.0628C85.9473 35.0028 81.899 29.2035 77.5085 23.7625C78.6204 22.557 79.7037 21.4167 80.8441 20.2764ZM43.7817 81.8863C45.0932 84.7533 46.4331 87.5879 47.8586 90.3898C49.3126 93.2243 50.7951 96.0588 52.3631 98.8282C47.9156 98.2743 43.4966 97.4598 39.1347 96.3846C40.3891 91.693 41.9571 86.8385 43.7817 81.8863ZM43.7817 65.4005C41.9856 60.546 40.4746 55.7892 39.2202 51.1954C43.3256 50.1528 47.6875 49.3057 52.2206 48.6541C50.7095 51.3583 49.2271 54.1276 47.8301 56.9295C46.4331 59.6989 45.0647 62.5334 43.7817 65.4005ZM47.0318 73.6434C48.9134 69.1473 50.9661 64.7489 53.1329 60.4157C55.2996 56.0825 57.6374 51.8796 60.0892 47.7418C64.3656 47.3834 68.7276 47.188 73.175 47.188C77.6225 47.188 82.013 47.3834 86.2609 47.7418C88.6842 51.847 90.9935 56.0499 93.1887 60.3505C95.384 64.6511 97.4367 69.0495 99.3753 73.5131C97.4652 78.0092 95.4125 82.4401 93.2172 86.8059C91.0505 91.1391 88.7412 95.342 86.3179 99.5124C82.07 99.8707 77.651 100.034 73.175 100.034C68.6991 100.034 64.3656 99.8707 60.1747 99.5775C57.6944 95.4398 55.3566 91.2043 53.1614 86.8711C50.9661 82.5379 48.942 78.1395 47.0318 73.6434ZM98.52 90.3246C99.974 87.4575 101.342 84.5579 102.682 81.6256C104.507 86.3498 106.104 91.1391 107.501 96.0588C103.082 97.1991 98.6055 98.0788 94.101 98.6653C95.6405 95.9285 97.0945 93.1266 98.52 90.3246ZM102.625 65.4005C101.285 62.5334 99.917 59.6663 98.4915 56.8644C97.0945 54.095 95.6405 51.3583 94.1295 48.6541C98.7196 49.3057 103.11 50.1854 107.215 51.2605C105.904 56.0825 104.364 60.7741 102.625 65.4005ZM73.2321 28.7474C76.2256 32.4615 79.048 36.3712 81.6709 40.4112C76.026 40.118 70.3526 40.118 64.7077 40.4112C67.5017 36.2083 70.3811 32.2986 73.2321 28.7474ZM40.161 8.77547C44.9506 5.58257 55.5847 10.1439 66.7889 21.4819C67.5017 22.1987 68.2144 22.9806 68.9556 23.7625C64.5367 29.2035 60.4598 35.0028 56.7251 41.0628C50.2819 41.7144 43.8958 42.8547 37.5667 44.4512C37.196 42.7896 36.8824 41.0954 36.5688 39.4012C33.8889 23.6322 35.6565 11.7403 40.161 8.77547ZM33.1762 94.6578C31.9788 94.2669 30.8099 93.8433 29.641 93.3872C23.5685 91.2043 16.6692 87.7508 11.68 83.2221C8.80055 80.9414 6.8619 77.4227 6.32022 73.4805C6.32022 67.5182 15.3292 59.8944 28.3296 54.7141C29.9546 54.0625 31.6082 53.476 33.2617 52.9221C35.2004 59.9921 37.5381 66.9318 40.2466 73.6434C37.5096 80.4527 35.1433 87.4901 33.1762 94.6578ZM66.4183 126.587C61.7142 131.506 56.2689 135.416 50.3389 138.088C47.1744 139.815 43.5251 139.977 40.2751 138.511C35.7421 135.514 33.8604 124.013 36.4263 108.537C36.7399 106.713 37.082 104.888 37.4811 103.096C43.8673 104.66 50.3104 105.735 56.8391 106.289C60.6023 112.382 64.7362 118.214 69.1552 123.687C68.2429 124.697 67.3306 125.675 66.4183 126.587ZM73.4031 118.67C70.4951 115.086 67.5872 111.111 64.7647 106.843C67.5017 106.973 70.3241 107.038 73.175 107.038C76.1115 107.038 78.991 106.973 81.8419 106.81C79.2191 110.948 76.3966 114.89 73.4031 118.67ZM110.665 128.444C110.408 132.419 108.698 136.133 105.961 138.642C101.428 141.639 91.7633 137.729 81.3288 127.499C80.1314 126.326 78.934 125.056 77.7081 123.752C82.07 118.246 86.0899 112.414 89.7391 106.289C96.2678 105.67 102.768 104.53 109.183 102.868C109.468 104.204 109.724 105.54 109.952 106.843C111.349 113.88 111.577 121.211 110.665 128.444ZM115.854 93.4198C115.056 93.713 114.257 94.0062 113.43 94.2669C111.435 87.1643 108.983 80.2247 106.161 73.4805C108.897 66.834 111.207 59.9921 113.145 52.9873C114.628 53.476 116.053 53.9973 117.422 54.5186C130.707 59.7315 140.03 67.4856 140.03 73.4153C140.03 79.8011 130.08 88.044 115.854 93.4198ZM73.175 58.6889C80.388 58.6889 86.2324 65.3679 86.2324 73.6108C86.2324 81.8537 80.388 88.5327 73.175 88.5327C65.9621 88.5327 60.1177 81.8537 60.1177 73.6108C60.1177 65.3679 65.9621 58.6889 73.175 58.6889Z" fill="#8BA5FF"/>
</svg>
