<svg width="147" height="147" viewBox="0 0 147 147" fill="none" xmlns="http://www.w3.org/2000/svg">
<path d="M126.504 84.7152C121.396 84.7457 116.973 86.3877 113.279 88.8203C111.934 85.2018 110.543 82.0394 110.315 79.6676C110.041 76.9005 109.745 75.2585 110.064 71.9744C110.383 68.6904 111.82 64.038 111.797 63.7035C111.774 63.3691 111.478 61.6966 108.536 61.6662C105.595 61.6358 103.064 62.4264 102.768 63.4603C102.471 64.4941 101.901 66.8355 101.559 69.2682C101.035 72.8259 95.6764 85.5363 92.6439 92.1651C91.6406 89.5805 90.797 87.2999 90.6146 85.4754C90.341 82.7083 90.0445 81.0663 90.3637 77.7823C90.683 74.4983 92.1194 69.8459 92.0966 69.5114C92.0738 69.1769 91.7774 67.5045 88.8361 67.4741C85.8947 67.4437 83.3638 68.2343 83.0674 69.2682C82.771 70.302 82.4518 72.7346 81.8589 75.076C81.2661 77.4174 74.1293 98.5812 72.2597 104.085C71.302 106.882 70.4812 109.133 69.8883 110.653C69.2955 112.173 69.8427 110.744 69.7971 110.927C69.2955 112.234 68.9991 112.964 68.9991 112.964V112.994C68.6115 113.967 68.1782 114.849 67.973 114.849C67.8362 114.849 67.5398 112.295 68.0414 108.798C69.1131 101.439 71.644 90.0062 71.6212 89.6109C71.5984 89.398 72.1 87.4215 69.9567 86.3573C67.8818 85.3538 67.1294 87.0262 66.947 87.0262C66.7646 87.0262 66.6278 87.6344 66.6278 87.6344C66.6278 87.6344 68.9307 74.7415 62.2043 74.7415C58.0089 74.7415 52.1718 80.8839 49.2989 86.4485C47.4976 87.756 43.5986 90.5839 39.4944 93.5943C37.9211 94.7498 36.3023 95.9357 34.7746 97.0608C34.6606 96.9087 34.5694 96.7567 34.4554 96.6047C26.2926 84.9889 11.221 76.7788 11.8594 61.1797C12.0875 55.4935 13.5695 40.5633 40.8397 22.4403C63.1848 7.60138 81.0609 11.676 84.139 20.7375C88.5625 33.6608 74.5854 57.7132 51.3738 61.1797C42.527 62.4872 37.8755 57.9261 36.7127 56.2233C35.5042 54.4292 35.3218 54.338 34.8658 54.6725C34.1133 55.2198 34.5922 56.801 34.8658 57.7436C35.5498 60.1458 38.4 64.4029 43.2566 66.5315C47.5204 68.3863 57.8949 69.4202 70.4356 62.9434C84.5267 55.7063 95.494 35.546 92.279 18.6698C88.9957 1.51984 67.6766 -4.10558 47.4976 5.44243C35.4814 11.1287 22.4848 20.0685 13.1363 31.7147C2.03216 45.5806 0.253673 57.6524 0.983309 62.7001C3.58264 80.6102 22.0972 92.2868 29.5075 100.923C29.1427 101.196 28.8007 101.439 28.4815 101.683C24.7649 104.146 10.651 113.998 7.11681 124.397C3.12662 136.195 7.77805 144.649 10.8334 145.804C20.3643 149.332 30.1232 142.976 35.3674 132.547C40.6117 122.117 39.9732 108.494 37.5563 102.291C37.5335 102.2 37.4879 102.139 37.4651 102.048C38.4228 101.287 39.4032 100.527 40.3837 99.7671C42.2762 98.2771 44.123 96.9087 45.7419 95.7228C44.8299 99.0069 44.1687 102.96 43.8266 108.677C43.4162 115.366 45.4911 124.032 48.1817 127.438C49.3673 128.928 50.8038 128.958 51.693 128.958C54.8396 128.958 56.2532 125.492 57.8265 121.356C59.7646 116.309 61.4747 110.44 61.4747 110.44C61.4747 110.44 59.3314 126.313 65.1913 126.313C67.3346 126.313 69.4779 122.634 70.4356 120.748V120.779C70.4356 120.779 70.4812 120.657 70.5952 120.414C70.8232 119.958 70.9372 119.684 70.9372 119.684V119.593C71.8036 117.616 73.6961 113.086 76.5463 105.605C80.24 95.9357 83.7742 83.8638 83.7742 83.8638C83.7742 83.8638 84.0934 86.8134 85.1879 91.709C85.8263 94.5977 87.1716 97.7601 88.2432 100.831C87.3768 102.413 86.8524 103.325 86.8524 103.325C86.8524 103.325 86.8524 103.355 86.8752 103.386C86.1911 104.602 85.4159 105.909 84.6179 107.187C81.6993 111.808 78.2335 117.099 77.7775 118.62C77.2303 120.414 77.3671 121.752 78.416 122.786C79.1912 123.576 80.5593 123.698 81.9957 123.546C84.6179 123.303 86.4648 122.451 87.354 121.904C88.7677 121.235 90.4093 120.171 91.9598 118.681C94.81 115.883 96.5429 111.869 96.3832 106.578C96.292 103.659 95.5852 100.74 94.7188 98.0034C94.9696 97.5169 95.2432 97 95.494 96.483C100.009 87.6952 103.497 78.056 103.497 78.056C103.497 78.056 103.816 81.0055 104.911 85.9011C105.458 88.3642 106.53 91.0705 107.51 93.7159C103.269 98.3075 100.647 103.629 99.735 107.126C98.0477 113.603 99.3702 116.522 101.856 117.191C102.973 117.495 104.569 116.795 105.755 116.126C107.237 115.457 109.015 114.393 110.68 112.751C113.53 109.954 116.289 106.031 116.106 100.71C116.038 98.3075 115.536 95.9053 114.875 93.5943C118.455 91.5874 123.106 90.4927 129.034 91.4049C141.735 93.3814 144.22 103.963 143.741 108.372C143.262 112.812 140.595 115.245 139.705 115.974C138.816 116.704 138.543 116.978 138.611 117.525C138.725 118.316 139.135 118.285 139.888 118.103C140.937 117.86 146.546 114.515 146.797 106.335C147.161 95.9965 139.705 84.624 126.504 84.7152ZM28.6183 128.715C24.4229 134.827 18.5402 137.138 16.0093 135.192C13.2959 133.094 14.3676 124.093 19.5434 117.586C22.69 113.633 26.7486 109.984 29.4391 107.734C30.0548 107.247 30.944 106.518 32.0384 105.636C32.2209 105.484 32.3121 105.423 32.3121 105.423C32.5173 105.24 32.7453 105.088 32.9733 104.906C34.8658 114.15 33.0417 122.299 28.6183 128.715ZM59.263 100.923C57.8037 105.697 54.7256 117.86 52.8559 117.221C51.2598 116.674 50.2794 107.399 52.5367 98.2771C53.6767 93.6855 56.0936 88.2121 57.5301 86.0836C59.833 82.6475 62.364 81.5528 62.9568 82.9212C63.7548 84.7152 60.175 97.9426 59.263 100.923ZM84.5723 117.039C83.9566 117.464 83.3866 117.738 83.113 117.525C82.9078 117.373 83.3638 116.795 83.3638 116.795C83.3638 116.795 86.5331 112.265 87.7872 110.197C88.5169 108.981 89.3605 107.551 90.2725 105.97C90.2725 106.122 90.2953 106.274 90.2953 106.457C90.2725 111.9 86.3507 115.579 84.5723 117.039ZM104.09 111.109C103.634 110.683 103.702 109.254 105.23 104.815C105.823 103.081 107.191 100.162 109.562 97.3648C109.836 98.5203 109.996 99.615 109.996 100.649C109.973 107.491 106.302 110.045 104.09 111.109Z" fill="#F74ED1"/>
</svg>
