<svg width="315" height="301" viewBox="0 0 315 301" fill="none" xmlns="http://www.w3.org/2000/svg">
<g clip-path="url(#clip0)">
<rect width="315" height="301" fill="#FFF0DE"/>
<path d="M166.868 147.949C170.643 149.818 170.893 156.316 170.579 158.587L135.406 150.887C134.934 150.757 134.117 151.146 135.249 147.409C136.665 142.739 139.957 141.59 141.53 141.201C143.103 140.811 162.148 145.614 166.868 147.949Z" fill="#634382"/>
<path d="M149.677 119.715C150.107 115.915 152.963 113.327 154.337 112.508C153.321 116.712 151.29 125.284 151.29 125.94C151.29 126.595 152.724 133.966 153.441 137.569C152.724 138.935 150.68 141.632 148.243 141.501C145.195 141.337 141.61 138.061 141.61 133.966C141.61 129.871 149.677 129.216 149.677 128.397C149.677 127.578 149.139 124.465 149.677 119.715Z" fill="#FF836D"/>
<path d="M171.562 109.325C167.489 107.895 158.623 110.678 154.699 112.249C153.745 112.617 151.517 117.934 151.199 123.295C150.945 127.583 151.835 138.185 152.313 142.95L182.698 146.849C182.698 144.629 182.825 139.929 183.334 138.889C183.971 137.59 185.084 121.833 182.698 117.934C180.312 114.036 176.653 111.112 171.562 109.325Z" fill="#624935"/>
<path d="M161.018 143.854C159.618 133.977 162.662 116.78 164.359 109.416C164.613 109.286 167.647 108.875 168.972 108.929C166.936 110.488 165.897 133.566 165.791 144.666L161.018 143.854Z" fill="#D46645"/>
<path d="M156.416 102.825C153.751 101.219 152.873 99.2552 152.767 98.4743C152.767 98.4743 152.664 98.1539 152.835 98.0345C153.005 97.9151 154.354 98.4743 156.099 97.9723C157.495 97.5707 171.646 99.5007 177.04 106.172C176.459 106.897 174.978 108.28 173.709 108.012C172.122 107.678 159.748 104.833 156.416 102.825Z" fill="#4E4439"/>
<path d="M166.148 114.694C170.729 113.521 172.935 105.734 173.466 101.987L169.807 97.4258H156.285C156.125 97.643 156.487 98.8594 156.869 101.987C157.346 105.897 160.421 116.16 166.148 114.694Z" fill="#F3D1B3"/>
<path d="M165.137 99.7308C163.607 101.032 159.187 101.899 157.169 102.17H156.9L156.85 101.844L156.691 100.544L156.372 98.5926L156.274 98.0336L156.85 97.9423L155.734 96.9667L159.719 95.3408L164.34 95.8286L171.99 96.9667L173.265 103.308C172.946 102.928 172.149 102.17 171.512 102.17C170.874 102.17 170.184 104.338 169.918 105.421C169.026 104.381 169.546 101.953 169.918 100.869C168.962 99.9476 166.667 98.43 165.137 99.7308Z" fill="#B38168"/>
<path d="M167.223 99.5986C165.186 98.8166 156.723 98.2953 152.746 98.1324C152.958 97.6436 153.796 96.5684 155.451 96.1774C157.519 95.6887 157.837 93.2452 159.428 89.987C161.018 86.7289 164.2 87.4885 168.655 89.3354C173.109 91.1823 173.586 91.236 173.904 93.2452C174.222 95.2544 175.389 102.477 176.768 105.626C174.435 103.943 169.259 100.381 167.223 99.5986Z" fill="#C4AA85"/>
<path d="M173.268 116.447C174.032 113.45 176.556 113.026 177.722 113.189C179.313 113.059 182.579 117.113 183.243 119.369C183.907 121.624 184.076 123.352 184.086 126.548C184.095 129.743 184.245 136.485 183.131 139.417C182.018 142.35 180.745 143.653 178.359 143.979C176.45 144.239 163.67 141.481 157.519 140.069C157.89 139.797 159.841 139.026 160.541 137.951C161.241 136.876 160.647 134.476 159.746 133.39C164.253 134.313 173.459 136.094 174.222 135.833C175.177 135.507 172.313 120.194 173.268 116.447Z" fill="#FF836D"/>
<ellipse cx="144.155" cy="134.174" rx="3.81803" ry="4.72432" fill="#FED6A9"/>
<path d="M180.463 145.927C185.095 147.163 184.783 152.723 183.984 153.737C183.185 154.751 148.008 150.437 148.008 150.437C147.528 150.321 146.857 149.258 148.008 145.927C149.447 141.764 153.603 140.724 155.202 140.377C156.801 140.03 175.83 144.691 180.463 145.927Z" fill="#8384B4"/>
<path d="M65.0803 88.0869C70.5828 118.348 54.7696 193.066 45 191.458" stroke="#DADADA" stroke-width="1.6635"/>
<path d="M156.082 137.514C153.041 133.286 142.626 121.834 125.295 109.856C103.633 94.8827 91.1436 91.8628 80.0492 89.753C71.1738 88.0652 66.0324 87.7735 64.5711 87.8386" stroke="black" stroke-width="0.956406"/>
<path d="M143.227 124.613C140.728 124.632 134.942 124.031 131.787 121.477C128.631 118.923 128.923 114.648 129.463 112.83C127.19 113.614 121.86 114.446 118.732 111.502C115.603 108.558 115.02 104.896 115.12 103.433C114.195 104.794 111.177 106.929 106.509 104.581C101.841 102.234 102.007 98.3692 102.674 96.7306C101.358 97.7152 97.8696 99.4311 94.4425 98.4171C91.0153 97.4031 89.4284 93.6171 89.0633 91.8507C88.0637 93.2843 85.2488 95.9031 81.9867 94.9096C78.7246 93.916 77.1457 90.6226 76.764 89.1002C75.9596 90.7218 73.6079 93.8733 70.6361 93.5057C67.6643 93.1382 65.6409 89.4456 65.0007 87.6453" stroke="black" stroke-width="0.478203"/>
<ellipse rx="6.22637" ry="4.30155" transform="matrix(0.896774 0.442488 -0.425758 0.904837 156.406 135.544)" fill="#F8D5AD"/>
<path d="M82.3283 213.136L70.9324 180.976L15.2655 189.878L27.4566 221.911L82.3283 213.136Z" fill="#FFD151"/>
<path d="M51.431 200.134L70.4014 181.06L14.9995 189.92L51.431 200.134Z" fill="#FFC31E"/>
<path d="M208.308 106.612L204.54 91.6484L227.729 81.0505L231.166 96.1659L208.308 106.612Z" fill="#FFD151"/>
<path d="M216.683 93.9748L204.761 91.5474L227.84 81L216.683 93.9748Z" fill="#FFC31E"/>
<path d="M101 77.7456L104.01 72.3594L113.663 75.6408L110.515 80.9801L101 77.7456Z" fill="#FFD151"/>
<path d="M106.904 76.3682L104.103 72.3906L113.709 75.6564L106.904 76.3682Z" fill="#FFC31E"/>
<path d="M237 127.239L241.681 120.616L253.842 126.242L248.988 132.784L237 127.239Z" fill="#FFD151"/>
<path d="M244.907 126.256L241.797 120.67L253.9 126.269L244.907 126.256Z" fill="#FFC31E"/>
<path d="M222.858 179.591L220.448 172.588L231.106 166.577L233.364 173.666L222.858 179.591Z" fill="#FFD151"/>
<path d="M226.35 173.207L220.55 172.531L231.157 166.549L226.35 173.207Z" fill="#FFC31E"/>
<path d="M3.13498 46.9274C0.555538 46.2446 -1.94548 46.2241 -4.63521 45.9342C-3.74217 45.7076 -2.91769 45.4727 -2.85845 45.4589C-0.827396 44.9866 1.03729 44.3963 3.1111 44.3963C3.57417 44.3963 4.0861 44.1483 4.53186 44.0501C6.80695 43.5488 9.06693 42.953 11.373 42.6055C12.0106 42.5094 14.177 42.7948 14.7398 42.307C14.9757 42.1025 15.9046 40.292 16.077 40.3609C16.3961 40.4885 16.2608 40.7292 16.9127 40.743C20.4702 40.8179 24.0643 40.8027 27.6102 41.1011C28.8502 41.2055 30.0466 41.6026 31.2874 41.6026C31.6217 41.6026 34.4976 41.6886 34.511 41.5548C34.6812 39.8526 32.0694 39.0542 30.8815 39.0118C27.1921 38.88 23.4949 38.6738 19.8139 38.3671C11.2147 37.6505 2.07952 36.9859 -6.09395 40.2057C-9.33618 41.4829 -13.0173 41.286 -16.4452 41.5548C-19.5064 41.7949 -22.7238 41.6423 -25.7816 41.6026C-27.9791 41.574 -31.406 41.4647 -33.4942 40.4206C-33.9504 40.1925 -34.2893 39.1622 -33.6375 39.0118C-30.124 38.201 -26.717 37.3174 -23.1191 36.9702C-19.6338 36.6339 -15.9726 36.0977 -12.4575 36.4926C-10.0425 36.764 -7.73625 38.2599 -5.24627 38.1641C-4.72528 38.1441 -4.07382 37.814 -3.62256 37.6507C-1.87256 37.0178 -0.112137 36.4058 1.67841 35.8957C3.73463 35.3098 5.81339 34.8551 7.93451 34.5824C8.17241 34.5518 9.88229 34.2174 10.3223 34.5107C11.2612 35.1367 13.5723 34.7257 14.8114 34.7257C16.0517 34.7257 17.2561 34.6968 18.4887 34.5107C22.1075 33.9645 25.8225 34.3392 29.4249 34.8212C31.1117 35.0469 33.1871 35.2133 34.4871 36.4449C35.4589 37.3655 36.606 38.0185 37.8778 38.4268C39.229 38.8605 40.3619 38.9005 41.5789 38.4745C43.6272 37.7576 46.2424 37.8127 48.3842 37.6507C49.7367 37.5484 51.0881 37.5194 52.4435 37.5194C52.9528 37.5194 51.8047 37.32 51.4645 36.9344C51.2138 36.6502 51.0386 36.312 50.772 36.039C50.6501 35.914 50.2586 35.7957 50.39 35.6808C51.001 35.1461 52.6681 35.352 53.4106 35.3823C53.9303 35.4035 55.3892 35.2993 55.8342 35.633C56.2047 35.9108 56.4458 36.1083 56.9326 36.23C57.7071 36.4236 58.7737 36.6598 59.5831 36.6598C61.1138 36.6598 62.0594 35.1487 63.523 34.7734C64.1424 34.6146 63.9234 34.607 64.4781 34.2481C65.2787 33.7301 65.0774 32.4749 66.066 32.1707C67.2017 31.8212 68.9433 32.1084 70.1015 32.1587C72.5044 32.2632 74.4466 33.4536 76.2859 34.8331C77.8375 35.9968 80.2866 36.23 82.2077 36.23C83.1482 36.23 83.1227 34.8869 84.2493 34.9406C84.9401 34.9734 85.4798 35.2593 86.0641 35.5375C86.8433 35.9086 88.2777 36.2085 88.3325 37.3045C88.3606 37.8668 87.8128 38.4649 87.9504 38.976C88.1347 39.6602 89.1929 40.0983 89.8368 40.0983C90.6669 40.0983 90.8262 40.9559 91.2456 41.4951C91.3673 41.6516 91.8297 42.085 92.1928 42.5328C92.3842 42.4699 92.5223 42.4259 92.5589 42.4144C94.0548 41.945 95.7802 41.299 97.3585 41.1728C97.8526 41.1332 98.3663 41.1728 98.8628 41.1728C100.731 41.1728 101.59 39.7898 102.516 38.5223C103.005 37.854 104.792 38.1641 105.525 38.1641H107.507C108.98 38.1641 110.102 39.1922 111.327 39.8833C112.836 40.7342 114.003 42.8825 115.948 42.4503C116.694 42.2844 117.235 41.1436 118.085 40.9817C118.563 40.8906 119.114 40.9579 119.601 40.9579C121.334 40.9579 122.191 41.8551 123.792 42.51C124.938 42.9789 126.19 43.5367 127.445 43.5367C128.039 43.5367 128.57 43.3218 129.164 43.3218C130.006 43.3218 129.684 42.7803 130.346 42.4861C130.748 42.3075 131.528 42.4622 131.958 42.4622C132.734 42.4622 134.438 42.5542 134.967 43.2144C135.895 44.3753 134.41 44.8883 134.012 45.6858C133.609 46.491 133.318 46.3305 133.904 46.3305C134.444 46.3305 135.064 46.2532 135.599 46.3424C137.421 46.6459 139.654 46.241 141.414 47.0229C142.771 47.6263 141.417 50.1084 140.888 50.939C140.137 52.1204 138.751 52.1329 137.474 52.1329C136.516 52.1329 134.786 52.4349 133.892 52.0851C131.858 51.289 130.115 50.7937 127.946 50.4136C127.003 50.2484 126.041 50.3096 125.105 50.151C123.778 49.926 122.519 49.4997 121.165 49.3869C119.769 49.2706 118.389 49.7467 116.986 49.7689C114.206 49.8131 111.156 49.7464 108.51 50.6285C106.039 51.452 103.105 51.0584 100.498 51.0584H97.7763C96.6151 51.0584 95.5889 50.4136 94.4573 50.4136C91.4446 50.4136 88.7716 48.6021 85.8253 48.0497L85.7557 48.0367C84.1708 47.7394 82.4714 47.4206 80.8586 47.7154C78.927 48.0685 77.1511 49.1159 75.1995 49.5063C74.3781 49.6705 73.4365 50.0659 72.74 50.5092C71.4761 51.3135 69.5992 51.0584 68.1912 51.0584C66.2196 51.0584 64.1746 50.7061 62.1739 50.6405C59.5306 50.5538 56.5065 50.7951 54.0075 51.3927C52.2208 51.8199 49.929 52.2335 48.2051 51.7031C45.771 50.9541 43.2277 50.6285 40.6835 50.6285C38.755 50.6285 36.8193 51.0584 34.8453 51.0584C33.3702 51.0584 33.6792 50.6043 32.3619 50.0555C30.6974 49.3619 29.6331 49.7069 27.8967 49.7689C25.7473 49.8457 23.5446 50.4757 21.3779 50.1868C20.3957 50.0558 19.5376 49.9838 18.5245 49.9838C17.7358 49.9838 17.3251 49.3391 16.6501 49.3391C15.1379 49.3391 13.584 49.1242 12.0416 49.1242C10.7539 49.1242 8.84684 49.8425 7.69572 48.9571C7.03694 48.4503 6.12541 48.3676 5.37954 48.0019C4.71732 47.6773 3.81713 47.108 3.13498 46.9274Z" fill="#FDE7BE"/>
<path d="M254.77 74.937C253.744 74.6655 252.749 74.6573 251.679 74.542C252.034 74.4519 252.362 74.3585 252.386 74.353C253.194 74.1651 253.935 73.9304 254.76 73.9304C254.944 73.9304 255.148 73.8317 255.325 73.7927C256.23 73.5933 257.129 73.3563 258.046 73.2181C258.3 73.1799 259.161 73.2934 259.385 73.0994C259.479 73.0181 259.848 72.2979 259.917 72.3254C260.044 72.3761 259.99 72.4719 260.249 72.4773C261.664 72.5071 263.094 72.5011 264.504 72.6198C264.997 72.6613 265.473 72.8192 265.967 72.8192C266.1 72.8192 267.243 72.8534 267.249 72.8002C267.316 72.1232 266.278 71.8057 265.805 71.7888C264.338 71.7364 262.867 71.6544 261.403 71.5324C257.983 71.2473 254.35 70.983 251.099 72.2636C249.809 72.7716 248.345 72.6933 246.982 72.8002C245.765 72.8957 244.485 72.835 243.269 72.8192C242.395 72.8079 241.032 72.7644 240.201 72.3491C240.02 72.2584 239.885 71.8486 240.144 71.7888C241.542 71.4663 242.897 71.1149 244.328 70.9768C245.714 70.843 247.17 70.6298 248.568 70.7868C249.529 70.8948 250.446 71.4897 251.436 71.4516C251.643 71.4437 251.902 71.3124 252.082 71.2475C252.778 70.9957 253.478 70.7523 254.19 70.5494C255.008 70.3164 255.835 70.1355 256.678 70.0271C256.773 70.0149 257.453 69.8819 257.628 69.9986C258.002 70.2475 258.921 70.0841 259.414 70.0841C259.907 70.0841 260.386 70.0726 260.876 69.9986C262.315 69.7813 263.793 69.9303 265.226 70.1221C265.897 70.2118 266.722 70.278 267.239 70.7679C267.626 71.134 268.082 71.3937 268.588 71.5561C269.125 71.7286 269.576 71.7445 270.06 71.5751C270.874 71.29 271.915 71.3119 272.766 71.2475C273.304 71.2068 273.842 71.1952 274.381 71.1952C274.584 71.1952 274.127 71.1159 273.992 70.9625C273.892 70.8495 273.822 70.715 273.716 70.6064C273.668 70.5567 273.512 70.5097 273.564 70.4639C273.807 70.2513 274.47 70.3332 274.766 70.3452C274.972 70.3537 275.553 70.3122 275.73 70.445C275.877 70.5555 275.973 70.634 276.166 70.6824C276.474 70.7594 276.899 70.8533 277.221 70.8533C277.829 70.8533 278.205 70.2523 278.788 70.1031C279.034 70.0399 278.947 70.0369 279.167 69.8941C279.486 69.6881 279.406 69.1889 279.799 69.0679C280.251 68.9289 280.943 69.0431 281.404 69.0631C282.36 69.1047 283.132 69.5781 283.864 70.1268C284.481 70.5896 285.455 70.6824 286.219 70.6824C286.593 70.6824 286.583 70.1482 287.031 70.1695C287.306 70.1826 287.52 70.2963 287.753 70.407C288.063 70.5545 288.633 70.6738 288.655 71.1097C288.666 71.3334 288.448 71.5712 288.503 71.7745C288.576 72.0467 288.997 72.2209 289.253 72.2209C289.583 72.2209 289.647 72.562 289.814 72.7765C289.862 72.8387 290.046 73.0111 290.19 73.1892C290.266 73.1642 290.321 73.1467 290.336 73.1421C290.931 72.9554 291.617 72.6985 292.245 72.6483C292.441 72.6325 292.646 72.6483 292.843 72.6483C293.586 72.6483 293.928 72.0982 294.296 71.5941C294.49 71.3283 295.201 71.4516 295.493 71.4516H296.281C296.867 71.4516 297.313 71.8605 297.801 72.1354C298.401 72.4738 298.865 73.3283 299.638 73.1564C299.935 73.0904 300.15 72.6367 300.488 72.5723C300.679 72.536 300.897 72.5628 301.091 72.5628C301.78 72.5628 302.121 72.9196 302.758 73.1801C303.214 73.3666 303.712 73.5885 304.211 73.5885C304.447 73.5885 304.658 73.503 304.895 73.503C305.23 73.503 305.102 73.2876 305.365 73.1706C305.525 73.0996 305.835 73.1611 306.006 73.1611C306.315 73.1611 306.993 73.1977 307.203 73.4603C307.572 73.922 306.981 74.126 306.823 74.4432C306.663 74.7635 306.547 74.6996 306.78 74.6996C306.995 74.6996 307.242 74.6689 307.454 74.7044C308.179 74.8251 309.067 74.664 309.767 74.975C310.307 75.215 309.768 76.2022 309.558 76.5325C309.259 77.0024 308.708 77.0074 308.2 77.0074C307.819 77.0074 307.131 77.1275 306.775 76.9884C305.966 76.6718 305.273 76.4748 304.411 76.3236C304.035 76.2579 303.652 76.2822 303.28 76.2191C302.753 76.1297 302.252 75.9601 301.713 75.9152C301.158 75.869 300.609 76.0583 300.051 76.0672C298.945 76.0847 297.733 76.0582 296.68 76.4091C295.697 76.7366 294.531 76.58 293.494 76.58H292.411C291.949 76.58 291.541 76.3236 291.091 76.3236C289.893 76.3236 288.83 75.6031 287.658 75.3834L287.63 75.3782C287 75.26 286.324 75.1332 285.682 75.2504C284.914 75.3909 284.208 75.8075 283.432 75.9627C283.105 76.0281 282.73 76.1853 282.453 76.3616C281.951 76.6815 281.204 76.58 280.644 76.58C279.86 76.58 279.047 76.4399 278.251 76.4138C277.2 76.3794 275.997 76.4753 275.003 76.713C274.292 76.8829 273.381 77.0474 272.695 76.8364C271.727 76.5386 270.716 76.4091 269.704 76.4091C268.937 76.4091 268.167 76.58 267.382 76.58C266.795 76.58 266.918 76.3994 266.394 76.1812C265.732 75.9053 265.309 76.0425 264.618 76.0672C263.763 76.0977 262.887 76.3483 262.025 76.2334C261.635 76.1813 261.293 76.1527 260.89 76.1527C260.577 76.1527 260.413 75.8962 260.145 75.8962C259.543 75.8962 258.925 75.8108 258.312 75.8108C257.8 75.8108 257.041 76.0965 256.584 75.7443C256.322 75.5427 255.959 75.5098 255.662 75.3644C255.399 75.2353 255.041 75.0089 254.77 74.937Z" fill="#FDE7BE"/>
<path d="M134.673 150.597H181.308C191.184 150.597 199.189 158.603 199.189 168.478V204.335H116.791V168.478C116.791 158.603 124.797 150.597 134.673 150.597Z" fill="#868CE0" stroke="#AEB2F0" stroke-width="1.19417"/>
<rect x="154.408" y="172.689" width="44.1845" height="31.0485" fill="#6F74CF"/>
<mask id="path-30-outside-1" maskUnits="userSpaceOnUse" x="114.194" y="149.194" width="41" height="56" fill="black">
<rect fill="white" x="114.194" y="149.194" width="41" height="56"/>
<path fill-rule="evenodd" clip-rule="evenodd" d="M134.586 151.194C124.421 151.241 116.194 159.496 116.194 169.672V203.989H153.214V169.672C153.214 159.467 144.941 151.194 134.736 151.194H134.586Z"/>
</mask>
<path fill-rule="evenodd" clip-rule="evenodd" d="M134.586 151.194C124.421 151.241 116.194 159.496 116.194 169.672V203.989H153.214V169.672C153.214 159.467 144.941 151.194 134.736 151.194H134.586Z" fill="#4549A4"/>
<path d="M134.586 151.194L134.586 150L134.58 150L134.586 151.194ZM116.194 203.989H115V205.183H116.194V203.989ZM153.214 203.989V205.183H154.408V203.989H153.214ZM117.389 169.672C117.389 160.153 125.083 152.432 134.591 152.388L134.58 150C123.758 150.049 115 158.838 115 169.672H117.389ZM117.389 203.989V169.672H115V203.989H117.389ZM153.214 202.795H116.194V205.183H153.214V202.795ZM152.02 169.672V203.989H154.408V169.672H152.02ZM134.736 152.388C144.281 152.388 152.02 160.126 152.02 169.672H154.408C154.408 158.807 145.6 150 134.736 150V152.388ZM134.586 152.388H134.736V150H134.586V152.388Z" fill="#AEB2F0" mask="url(#path-30-outside-1)"/>
<rect x="115" y="204.932" width="84.7864" height="4.7767" fill="#CF885A"/>
<rect x="152.711" y="209.332" width="13.6387" height="63.6679" fill="#CF885A"/>
<path d="M162.39 215.017H153.151H152.711V209.332H166.35V273H162.39V215.017Z" fill="#B56A4B"/>
</g>
<defs>
<clipPath id="clip0">
<rect width="315" height="301" fill="white"/>
</clipPath>
</defs>
</svg>
