<svg width="315" height="301" fill="none" xmlns="http://www.w3.org/2000/svg"><g clip-path="url(#clip0)"><path fill="#FFF0DE" d="M0 0h315v301H0z"/><path d="M166.868 147.949c3.775 1.869 4.025 8.367 3.711 10.638l-35.173-7.7c-.472-.13-1.289.259-.157-3.478 1.416-4.67 4.708-5.819 6.281-6.208 1.573-.39 20.618 4.413 25.338 6.748z" fill="#634382"/><path d="M149.677 119.715c.43-3.8 3.286-6.388 4.66-7.207-1.016 4.204-3.047 12.776-3.047 13.432 0 .655 1.434 8.026 2.151 11.629-.717 1.366-2.761 4.063-5.198 3.932-3.048-.164-6.633-3.44-6.633-7.535 0-4.095 8.067-4.75 8.067-5.569s-.538-3.932 0-8.682z" fill="#FF836D"/><path d="M171.562 109.325c-4.073-1.43-12.939 1.353-16.863 2.924-.954.368-3.182 5.685-3.5 11.046-.254 4.288.636 14.89 1.114 19.655l30.385 3.899c0-2.22.127-6.92.636-7.96.637-1.299 1.75-17.056-.636-20.955-2.386-3.898-6.045-6.822-11.136-8.609z" fill="#624935"/><path d="M161.018 143.854c-1.4-9.877 1.644-27.074 3.341-34.438.254-.13 3.288-.541 4.613-.487-2.036 1.559-3.075 24.637-3.181 35.737l-4.773-.812z" fill="#D46645"/><path d="M156.416 102.825c-2.665-1.606-3.543-3.57-3.649-4.35 0 0-.103-.321.068-.44.17-.12 1.519.44 3.264-.063 1.396-.401 15.547 1.529 20.941 8.2-.581.725-2.062 2.108-3.331 1.84-1.587-.334-13.961-3.179-17.293-5.187z" fill="#4E4439"/><path d="M166.148 114.694c4.581-1.173 6.787-8.96 7.318-12.707l-3.659-4.561h-13.522c-.16.217.202 1.433.584 4.561.477 3.91 3.552 14.173 9.279 12.707z" fill="#F3D1B3"/><path d="M165.137 99.73c-1.53 1.302-5.95 2.169-7.968 2.44h-.269l-.05-.326-.159-1.3-.319-1.951-.098-.56.576-.09-1.116-.976 3.985-1.626 4.621.488 7.65 1.138 1.275 6.341c-.319-.38-1.116-1.138-1.753-1.138-.638 0-1.328 2.168-1.594 3.251-.892-1.04-.372-3.468 0-4.552-.956-.921-3.251-2.439-4.781-1.138z" fill="#B38168"/><path d="M167.223 99.599c-2.037-.782-10.5-1.304-14.477-1.467.212-.488 1.05-1.564 2.705-1.955 2.068-.488 2.386-2.932 3.977-6.19 1.59-3.258 4.772-2.498 9.227-.652 4.454 1.847 4.931 1.901 5.249 3.91.318 2.01 1.485 9.232 2.864 12.381-2.333-1.683-7.509-5.245-9.545-6.027z" fill="#C4AA85"/><path d="M173.268 116.447c.764-2.997 3.288-3.421 4.454-3.258 1.591-.13 4.857 3.924 5.521 6.18.664 2.255.833 3.983.843 7.179.009 3.195.159 9.937-.955 12.869-1.113 2.933-2.386 4.236-4.772 4.562-1.909.26-14.689-2.498-20.84-3.91.371-.272 2.322-1.043 3.022-2.118.7-1.075.106-3.475-.795-4.561 4.507.923 13.713 2.704 14.476 2.443.955-.326-1.909-15.639-.954-19.386z" fill="#FF836D"/><ellipse cx="144.155" cy="134.174" rx="3.818" ry="4.724" fill="#FED6A9"/><path d="M180.463 145.927c4.632 1.236 4.32 6.796 3.521 7.81-.799 1.014-35.976-3.3-35.976-3.3-.48-.116-1.151-1.179 0-4.51 1.439-4.163 5.595-5.203 7.194-5.55 1.599-.347 20.628 4.314 25.261 5.55z" fill="#8384B4"/><path d="M65.08 88.087C70.583 118.348 54.77 193.066 45 191.458" stroke="#DADADA" stroke-width="1.663"/><path d="M156.082 137.514c-3.041-4.228-13.456-15.68-30.787-27.658-21.662-14.973-34.151-17.993-45.246-20.103-8.875-1.688-14.017-1.98-15.478-1.914" stroke="#000" stroke-width=".956"/><path d="M143.227 124.613c-2.499.019-8.285-.582-11.44-3.136-3.156-2.554-2.864-6.829-2.324-8.647-2.273.784-7.603 1.616-10.731-1.328-3.129-2.944-3.712-6.606-3.612-8.069-.925 1.361-3.943 3.496-8.611 1.148-4.668-2.347-4.502-6.212-3.835-7.85-1.316.984-4.804 2.7-8.232 1.686-3.427-1.014-5.014-4.8-5.379-6.566-1 1.433-3.814 4.052-7.076 3.059-3.262-.994-4.841-4.287-5.223-5.81-.804 1.622-3.156 4.773-6.128 4.406-2.972-.368-4.995-4.06-5.635-5.86" stroke="#000" stroke-width=".478"/><ellipse rx="6.226" ry="4.302" transform="matrix(.89677 .44249 -.42576 .90484 156.406 135.544)" fill="#F8D5AD"/><path d="M82.328 213.136l-11.396-32.16-55.666 8.902 12.19 32.033 54.872-8.775z" fill="#FFD151"/><path d="M51.431 200.134l18.97-19.074L15 189.92l36.431 10.214z" fill="#FFC31E"/><path d="M208.308 106.612l-3.768-14.964 23.189-10.597 3.437 15.115-22.858 10.446z" fill="#FFD151"/><path d="M216.683 93.975l-11.922-2.428L227.84 81l-11.157 12.975z" fill="#FFC31E"/><path d="M101 77.746l3.01-5.387 9.653 3.282-3.148 5.34L101 77.745z" fill="#FFD151"/><path d="M106.904 76.368l-2.801-3.977 9.606 3.265-6.805.712z" fill="#FFC31E"/><path d="M237 127.239l4.681-6.623 12.161 5.626-4.854 6.542L237 127.239z" fill="#FFD151"/><path d="M244.907 126.256l-3.11-5.586 12.103 5.599-8.993-.013z" fill="#FFC31E"/><path d="M222.858 179.591l-2.41-7.003 10.658-6.011 2.258 7.089-10.506 5.925z" fill="#FFD151"/><path d="M226.35 173.207l-5.8-.676 10.607-5.982-4.807 6.658z" fill="#FFC31E"/><path d="M3.135 46.927c-2.58-.682-5.08-.703-7.77-.993.893-.226 1.717-.461 1.777-.475 2.03-.472 3.895-1.063 5.97-1.063.462 0 .974-.248 1.42-.346 2.275-.501 4.535-1.097 6.841-1.444.638-.097 2.804.189 3.367-.299.236-.205 1.165-2.015 1.337-1.946.32.128.184.368.836.382 3.557.075 7.151.06 10.697.358 1.24.105 2.437.502 3.677.502.335 0 3.21.086 3.224-.048.17-1.702-2.442-2.5-3.63-2.543-3.689-.132-7.386-.338-11.067-.645-8.6-.716-17.734-1.381-25.908 1.839-3.242 1.277-6.923 1.08-10.351 1.349-3.061.24-6.279.087-9.337.048-2.197-.029-5.624-.138-7.712-1.182-.456-.228-.795-1.259-.144-1.41 3.514-.81 6.921-1.694 10.519-2.04 3.485-.337 7.146-.873 10.662-.478 2.415.271 4.72 1.767 7.21 1.671.522-.02 1.173-.35 1.624-.513 1.75-.633 3.51-1.245 5.301-1.755 2.057-.586 4.135-1.04 6.257-1.314.237-.03 1.947-.365 2.387-.071.94.626 3.25.215 4.49.215 1.24 0 2.444-.03 3.677-.215 3.619-.547 7.334-.172 10.936.31 1.687.226 3.762.392 5.062 1.624a8.772 8.772 0 0 0 3.39 1.982c1.352.434 2.485.474 3.702.047 2.048-.716 4.663-.661 6.805-.823a53.746 53.746 0 0 1 4.06-.132c.509 0-.64-.199-.98-.585-.25-.284-.425-.622-.692-.895-.122-.125-.513-.243-.382-.358.611-.535 2.278-.329 3.02-.299.52.022 1.98-.083 2.424.251.37.278.612.475 1.099.597.774.194 1.84.43 2.65.43 1.53 0 2.476-1.511 3.94-1.887.62-.158.4-.166.955-.525.8-.518.6-1.773 1.588-2.077 1.136-.35 2.877-.063 4.035-.012 2.403.104 4.346 1.295 6.185 2.674 1.552 1.164 4 1.397 5.922 1.397.94 0 .915-1.343 2.041-1.29.691.033 1.23.32 1.815.598.78.37 2.214.67 2.269 1.767.028.562-.52 1.16-.383 1.671.185.684 1.243 1.122 1.887 1.122.83 0 .99.858 1.409 1.397.121.157.584.59.947 1.038l.366-.119c1.496-.469 3.221-1.115 4.8-1.241.494-.04 1.007 0 1.504 0 1.868 0 2.727-1.383 3.653-2.65.489-.669 2.276-.359 3.009-.359h1.982c1.473 0 2.595 1.028 3.82 1.72 1.509.85 2.676 2.998 4.621 2.566.746-.166 1.287-1.306 2.137-1.468.478-.091 1.029-.024 1.516-.024 1.733 0 2.59.897 4.191 1.552 1.146.469 2.398 1.027 3.653 1.027.594 0 1.125-.215 1.719-.215.842 0 .52-.542 1.182-.836.402-.178 1.182-.024 1.612-.024.776 0 2.48.092 3.009.752.928 1.161-.557 1.674-.955 2.472-.403.805-.694.645-.108.645.54 0 1.16-.078 1.695.011 1.822.304 4.055-.101 5.815.68 1.357.604.003 3.086-.526 3.917-.751 1.181-2.137 1.194-3.414 1.194-.958 0-2.688.302-3.582-.048a29.18 29.18 0 0 0-5.946-1.671c-.943-.166-1.905-.104-2.841-.263-1.327-.225-2.586-.651-3.94-.764-1.396-.116-2.776.36-4.179.382-2.78.044-5.83-.023-8.476.86-2.471.823-5.405.43-8.012.43h-2.722c-1.16 0-2.187-.645-3.319-.645-3.012 0-5.685-1.812-8.632-2.364l-.07-.013c-1.584-.298-3.284-.616-4.896-.322-1.932.353-3.708 1.4-5.66 1.791-.82.164-1.763.56-2.459 1.003-1.264.804-3.14.55-4.549.55-1.971 0-4.016-.353-6.017-.418-2.643-.087-5.667.154-8.166.752-1.787.427-4.079.84-5.803.31-2.434-.749-4.977-1.075-7.521-1.075-1.929 0-3.865.43-5.839.43-1.475 0-1.166-.454-2.483-1.002-1.665-.694-2.729-.35-4.465-.287-2.15.077-4.352.707-6.52.418a20.555 20.555 0 0 0-2.852-.203c-.79 0-1.2-.645-1.875-.645-1.512 0-3.066-.215-4.608-.215-1.288 0-3.195.718-4.346-.167-.66-.507-1.57-.59-2.316-.955-.663-.325-1.563-.894-2.245-1.075zM254.77 74.937c-1.026-.272-2.021-.28-3.091-.395.355-.09.683-.183.707-.189.808-.188 1.549-.423 2.374-.423.184 0 .388-.098.565-.137.905-.2 1.804-.437 2.721-.575.254-.038 1.115.075 1.339-.119.094-.08.463-.801.532-.774.127.051.073.147.332.152 1.415.03 2.845.024 4.255.143.493.041.969.2 1.463.2.133 0 1.276.033 1.282-.02.067-.677-.971-.994-1.444-1.011a93.057 93.057 0 0 1-4.402-.257c-3.42-.285-7.053-.549-10.304.732-1.29.508-2.754.43-4.117.536-1.217.096-2.497.035-3.713.02-.874-.012-2.237-.056-3.068-.47-.181-.092-.316-.501-.057-.561 1.398-.323 2.753-.674 4.184-.812 1.386-.134 2.842-.347 4.24-.19.961.108 1.878.703 2.868.665.207-.008.466-.14.646-.204a31.956 31.956 0 0 1 2.108-.699 16.976 16.976 0 0 1 2.488-.522c.095-.012.775-.145.95-.028.374.249 1.293.085 1.786.085.493 0 .972-.011 1.462-.085 1.439-.218 2.917-.069 4.35.123.671.09 1.496.156 2.013.646.387.366.843.626 1.349.788.537.173.988.189 1.472.02.814-.286 1.855-.264 2.706-.328.538-.041 1.076-.053 1.615-.053.203 0-.254-.08-.389-.232-.1-.113-.17-.248-.276-.357-.048-.05-.204-.096-.152-.142.243-.213.906-.13 1.202-.119.206.009.787-.033.964.1.147.11.243.189.436.237.308.077.733.171 1.055.171.608 0 .984-.6 1.567-.75.246-.063.159-.066.379-.209.319-.206.239-.705.632-.826.452-.14 1.144-.025 1.605-.005.956.042 1.728.515 2.46 1.064.617.463 1.591.555 2.355.555.374 0 .364-.534.812-.513.275.014.489.127.722.238.31.148.88.267.902.703.011.223-.207.461-.152.665.073.272.494.446.75.446.33 0 .394.341.561.555.048.063.232.235.376.413a10.3 10.3 0 0 1 .146-.047c.595-.187 1.281-.444 1.909-.494.196-.016.401 0 .598 0 .743 0 1.085-.55 1.453-1.054.194-.266.905-.142 1.197-.142h.788c.586 0 1.032.409 1.52.683.6.339 1.064 1.193 1.837 1.021.297-.066.512-.52.85-.584.191-.036.409-.01.603-.01.689 0 1.03.358 1.667.618.456.187.954.408 1.453.408.236 0 .447-.085.684-.085.335 0 .207-.215.47-.332.16-.071.47-.01.641-.01.309 0 .987.037 1.197.3.369.461-.222.665-.38.982-.16.32-.276.257-.043.257.215 0 .462-.031.674.004.725.121 1.613-.04 2.313.271.54.24.001 1.227-.209 1.558-.299.47-.85.474-1.358.474-.381 0-1.069.12-1.425-.019a11.614 11.614 0 0 0-2.364-.664c-.376-.066-.759-.042-1.131-.105-.527-.09-1.028-.259-1.567-.304-.555-.046-1.104.143-1.662.152-1.106.018-2.318-.009-3.371.342-.983.328-2.149.171-3.186.171h-1.083c-.462 0-.87-.256-1.32-.256-1.198 0-2.261-.72-3.433-.94l-.028-.006c-.63-.118-1.306-.245-1.948-.128-.768.14-1.474.558-2.25.713a3.087 3.087 0 0 0-.979.399c-.502.32-1.249.218-1.809.218-.784 0-1.597-.14-2.393-.166-1.051-.035-2.254.061-3.248.299-.711.17-1.622.334-2.308.123a10.165 10.165 0 0 0-2.991-.427c-.767 0-1.537.171-2.322.171-.587 0-.464-.18-.988-.399-.662-.276-1.085-.138-1.776-.114-.855.03-1.731.281-2.593.166a8.17 8.17 0 0 0-1.135-.08c-.313 0-.477-.257-.745-.257-.602 0-1.22-.085-1.833-.085-.512 0-1.271.285-1.728-.067-.262-.201-.625-.234-.922-.38-.263-.129-.621-.355-.892-.427z" fill="#FDE7BE"/><path d="M134.673 150.597h46.635c9.876 0 17.881 8.006 17.881 17.881v35.857h-82.398v-35.857c0-9.875 8.006-17.881 17.882-17.881z" fill="#868CE0" stroke="#AEB2F0" stroke-width="1.194"/><path fill="#6F74CF" d="M154.408 172.689h44.184v31.049h-44.184z"/><mask id="a" maskUnits="userSpaceOnUse" x="114.194" y="149.194" width="41" height="56" fill="#000"><path fill="#fff" d="M114.194 149.194h41v56h-41z"/><path fill-rule="evenodd" clip-rule="evenodd" d="M134.586 151.194c-10.165.047-18.392 8.302-18.392 18.478v34.317h37.02v-34.317c0-10.205-8.273-18.478-18.478-18.478h-.15z"/></mask><path fill-rule="evenodd" clip-rule="evenodd" d="M134.586 151.194c-10.165.047-18.392 8.302-18.392 18.478v34.317h37.02v-34.317c0-10.205-8.273-18.478-18.478-18.478h-.15z" fill="#4549A4"/><path d="M134.586 151.194V150h-.006l.006 1.194zm-18.392 52.795H115v1.194h1.194v-1.194zm37.02 0v1.194h1.194v-1.194h-1.194zm-35.825-34.317c0-9.519 7.694-17.24 17.202-17.284L134.58 150c-10.822.049-19.58 8.838-19.58 19.672h2.389zm0 34.317v-34.317H115v34.317h2.389zm35.825-1.194h-37.02v2.388h37.02v-2.388zm-1.194-33.123v34.317h2.388v-34.317h-2.388zm-17.284-17.284c9.545 0 17.284 7.738 17.284 17.284h2.388c0-10.865-8.808-19.672-19.672-19.672v2.388zm-.15 0h.15V150h-.15v2.388z" fill="#AEB2F0" mask="url(#a)"/><path fill="#CF885A" d="M115 204.932h84.786v4.777H115z"/><path fill="#CF885A" d="M152.711 209.332h13.639V273h-13.639z"/><path d="M162.39 215.017h-9.679v-5.685h13.639V273h-3.96v-57.983z" fill="#B56A4B"/></g><defs><clipPath id="clip0"><path fill="#fff" d="M0 0h315v301H0z"/></clipPath></defs></svg>